<svg xmlns="http://www.w3.org/2000/svg" width="24" height="24" viewBox="0 0 24 24" fill="none">
  <rect width="24" height="24" rx="12" fill="#262626"/>
  <path fill-rule="evenodd" clip-rule="evenodd" d="M12 17.8813C15.935 17.8813 19.125 14.9698 19.125 11.3782C19.125 7.78657 15.935 4.875 12 4.875C8.06497 4.875 4.875 7.78657 4.875 11.3782C4.875 13.4935 5.98153 15.3729 7.6951 16.5606V19.8751L10.5435 17.7454C11.0137 17.8345 11.5009 17.8813 12 17.8813Z" fill="white"/>
  <path d="M12.4559 10.8163H11.4358C11.1687 9.83544 10.3729 9.71817 9.91893 9.71817C9.46493 9.71817 9.06435 9.90474 8.71184 10.2779C8.35933 10.651 8.29524 11.2214 8.35933 11.6904C8.42342 12.1595 8.74923 12.5007 8.93617 12.6659C9.12311 12.8312 9.76404 13.1883 10.5171 12.9324C11.1196 12.7278 11.3806 12.2111 11.4358 11.9783H12.4399C12.3331 12.6393 11.9005 13.2523 11.4091 13.5881C10.9177 13.9239 10.2073 14.0678 9.55573 13.9612C8.90412 13.8546 8.23649 13.5295 7.84125 12.9484C7.44601 12.3674 7.17361 11.5892 7.43532 10.6403C7.69704 9.69152 8.38069 9.26508 8.62104 9.1105C8.86139 8.95592 9.95631 8.44952 11.1367 9.01988C12.081 9.47617 12.4096 10.4076 12.4559 10.8163Z" fill="#262626"/>
  <path d="M14.2296 8.78027H13.2949L13.3003 13.8975H14.2296V12.3304C14.2118 12.1154 14.2104 11.6299 14.3471 11.4082C14.518 11.131 14.8278 10.9871 15.2818 11.099C15.645 11.1886 15.7394 11.5841 15.7411 11.7707V13.8975H16.6651V11.9572C16.6651 11.3549 16.6331 11.163 16.5103 10.9285C16.3874 10.6939 16.083 10.2355 15.426 10.1982C14.7683 10.1608 14.3792 10.4274 14.2296 10.7046V8.78027Z" fill="#262626"/>
</svg>