<svg width="48" height="48" viewBox="0 0 48 48" fill="none" xmlns="http://www.w3.org/2000/svg">
<path d="M20.2875 9.59961C26.1808 9.59961 30.975 14.3938 30.975 20.2871C30.975 22.8296 30.0823 25.1668 28.5945 27.0028L30.4778 28.8866C31.6393 28.7269 32.9336 29.453 33.4495 29.7422C34.9553 30.5876 36.5393 31.883 37.3498 32.5805L37.3819 32.6081L37.4117 32.6379C38.049 33.2752 38.4 34.1229 38.4 35.0246C38.4 35.9263 38.049 36.7734 37.4117 37.4113C36.7744 38.0486 35.9267 38.3996 35.025 38.3996C34.1233 38.3996 33.2762 38.0486 32.6383 37.4113L32.5883 37.3579C31.7254 36.3746 30.5284 34.9194 29.7235 33.5734C29.3978 33.0289 28.5546 31.617 28.8139 30.4048L27.0038 28.5947C25.1672 30.0825 22.83 30.9752 20.2875 30.9752C18.73 30.9752 17.2281 30.6472 15.8235 30.0009C15.2593 29.741 15.0124 29.0728 15.2723 28.5086C15.5322 27.9439 16.2004 27.6969 16.7646 27.9568C17.8722 28.4664 19.0579 28.7252 20.2881 28.7252C24.9405 28.7252 28.7256 24.9401 28.7256 20.2877C28.7256 15.6352 24.94 11.8496 20.2875 11.8496C15.6351 11.8496 11.85 15.6347 11.85 20.2871C11.85 21.753 12.2314 23.1958 12.9525 24.4609C13.2602 25.0003 13.0723 25.6877 12.5329 25.9954C11.9935 26.303 11.3061 26.1152 10.9984 25.5757C10.0838 23.972 9.60003 22.1434 9.60003 20.2871C9.60003 14.3938 14.3942 9.59961 20.2875 9.59961ZM34.2516 35.8414C34.4614 36.0405 34.7348 36.1496 35.025 36.1496C35.3153 36.1496 35.6078 36.0326 35.8204 35.82C36.033 35.6074 36.15 35.325 36.15 35.0246C36.15 34.7242 36.042 34.4638 35.8451 34.2545C34.7539 33.318 33.6598 32.4995 32.7604 31.9472C31.8671 31.3987 31.3356 31.2103 31.0543 31.1473C31.2191 31.752 31.9594 33.2235 34.2516 35.8414Z" fill="#474E58"/>
</svg>
