<svg width="12" height="12" viewBox="0 0 12 12" fill="none" xmlns="http://www.w3.org/2000/svg">
<path fill-rule="evenodd" clip-rule="evenodd" d="M11.7708 0.229221C12.0764 0.534848 12.0764 1.03037 11.7708 1.336L1.336 11.7708C1.03037 12.0764 0.534848 12.0764 0.229221 11.7708C-0.0764069 11.4652 -0.0764069 10.9696 0.229221 10.664L10.664 0.229221C10.9696 -0.0764069 11.4652 -0.0764069 11.7708 0.229221Z" fill="#666666"/>
<path fill-rule="evenodd" clip-rule="evenodd" d="M0 0.782609C0 0.350386 0.350386 0 0.782609 0H11.2174C11.6496 0 12 0.350386 12 0.782609V11.2174C12 11.6496 11.6496 12 11.2174 12C10.7852 12 10.4348 11.6496 10.4348 11.2174V1.56522H0.782609C0.350386 1.56522 0 1.21483 0 0.782609Z" fill="#666666"/>
</svg>
