<svg width="24" height="24" viewBox="0 0 24 24" fill="none" xmlns="http://www.w3.org/2000/svg">
    <path fill-rule="evenodd" clip-rule="evenodd"
        d="M12 2.92907C7.06334 2.92907 3.06139 6.93102 3.06139 11.8677C3.06139 16.8043 7.06334 20.8063 12 20.8063C16.9367 20.8063 20.9386 16.8043 20.9386 11.8677C20.9386 6.93102 16.9367 2.92907 12 2.92907ZM2 11.8677C2 6.34483 6.47715 1.86768 12 1.86768C17.5228 1.86768 22 6.34483 22 11.8677C22 17.3905 17.5228 21.8677 12 21.8677C6.47715 21.8677 2 17.3905 2 11.8677Z"
        fill="url(#paint0_linear_1807_45410)" />
    <path fill-rule="evenodd" clip-rule="evenodd"
        d="M12.73 6.83073C12.9372 6.62348 13.2733 6.62348 13.4805 6.83073L18.1403 11.4905C18.2127 11.546 18.271 11.6204 18.3074 11.7084C18.3351 11.7751 18.3483 11.8452 18.3478 11.9147C18.3483 11.9841 18.3351 12.0542 18.3074 12.121C18.271 12.2089 18.2127 12.2833 18.1403 12.3389L13.4805 16.9986C13.2733 17.2059 12.9372 17.2059 12.73 16.9986C12.5227 16.7914 12.5227 16.4554 12.73 16.2481L16.5295 12.4486H6.75531C6.46221 12.4486 6.22461 12.211 6.22461 11.9179L6.22462 11.9147L6.22461 11.9115C6.22461 11.6184 6.46221 11.3808 6.75531 11.3808H16.5295L12.73 7.58125C12.5227 7.374 12.5227 7.03798 12.73 6.83073Z"
        fill="url(#paint1_linear_1807_45410)" />
    <defs>
        <linearGradient id="paint0_linear_1807_45410" x1="22" y1="5.42767" x2="2.75" y2="18.4927"
            gradientUnits="userSpaceOnUse">
            <stop stop-color="#F32FD9" />
            <stop offset="1" stop-color="#8FA1FF" />
        </linearGradient>
        <linearGradient id="paint1_linear_1807_45410" x1="18.3479" y1="8.54051" x2="7.80473"
            y2="16.8191" gradientUnits="userSpaceOnUse">
            <stop stop-color="#F32FD9" />
            <stop offset="1" stop-color="#8FA1FF" />
        </linearGradient>
    </defs>
</svg>    
